<?xml version="1.0" encoding="utf-8"?>
<!-- Generator: Adobe Illustrator 17.0.0, SVG Export Plug-In . SVG Version: 6.00 Build 0)  -->
<!DOCTYPE svg PUBLIC "-//W3C//DTD SVG 1.1//EN" "http://www.w3.org/Graphics/SVG/1.1/DTD/svg11.dtd">
<svg version="1.1" id="图层_1" xmlns="http://www.w3.org/2000/svg" xmlns:xlink="http://www.w3.org/1999/xlink" x="0px" y="0px"
	 width="284px" height="284px" viewBox="0 0 284 284" enable-background="new 0 0 284 284" xml:space="preserve">
<circle id="oval2" fill="#F3F2F1" cx="141" cy="141" r="141"/>
<g>
	<defs>
		<circle id="SVGID_1_" cx="141" cy="141" r="141"/>
	</defs>
	<clipPath id="SVGID_2_">
		<use xlink:href="#SVGID_1_"  overflow="visible"/>
	</clipPath>
	<g id="group" clip-path="url(#SVGID_2_)">
		<g id="page1">
			<g id="layer_1">
				<g id="layer_1_1_">
					<path id="bezier2" fill="#F3C5AD" d="M106.68,235.376c11.06,4.14,13.23,25.63,4.84,48.01c-8.38,22.38-24.15,37.17-35.2,33.03
						c-11.06-4.14-13.23-25.64-4.84-48.01C79.86,246.026,95.63,231.236,106.68,235.376z"/>
					<path id="bezier" d="M85.95,314.636v17.1h113.31v-17.1H85.95z"/>
					<path id="bezier3" fill="#1A1718" fill-opacity="0.3" d="M70,288.496c-1.68-1.11-1.74-5.52-0.23-10.18
						c-0.17,0.38-0.33,0.77-0.48,1.17c-1.94,5.08-2.03,10.18-0.2,11.39c1.84,1.21,4.88-1.93,6.82-7.01
						c0.15-0.41,0.29-0.81,0.42-1.21C74.4,287.036,71.68,289.606,70,288.496L70,288.496z"/>
					<path id="bezier4" fill="#F3C5AD" d="M172.32,223.376c-11.06,4.14-13.23,25.63-4.84,48.01c8.38,22.38,24.15,37.17,35.2,33.03
						c11.06-4.14,13.23-25.64,4.84-48.01C199.14,234.026,183.37,219.236,172.32,223.376z"/>
					<path id="bezier5" fill="#1A1718" fill-opacity="0.3" d="M196.06,297.326c-3.27,0-5.95-5.02-6.36-11.53
						c-0.04,0.56-0.06,1.13-0.06,1.71c0,7.32,2.87,13.25,6.41,13.25c3.54,0,6.42-5.93,6.42-13.25c0-0.58-0.03-1.15-0.07-1.71
						C202,292.296,199.31,297.326,196.06,297.326L196.06,297.326z"/>
					<path id="bezier6" fill="#3AA488" d="M209.95,249.466l-19.56-27.77l-15.76,7.24l-1.4-4.57h-62.91l-1.08,3.96l-14.42-6.63
						l-19.56,27.77l24.99,11.48l-15.37,55.83h116.63l-17.02-55.61L209.95,249.466z"/>
					<path id="bezier7" fill="#FFFFFF" d="M142.6,253.746c10.04,0,18.18-8.13,18.18-18.16s-8.14-18.16-18.18-18.16
						c-10.03,0-18.17,8.13-18.17,18.16S132.57,253.746,142.6,253.746z"/>
					<path id="bezier8" fill="#D5A691" d="M142.57,250.476c8.25,0,14.93-6.24,14.93-13.93s-6.68-13.92-14.93-13.92
						s-14.93,6.23-14.93,13.92S134.32,250.476,142.57,250.476z"/>
					<path id="bezier9" fill="#F3C5AD" d="M46.93,169.346c7.97,0,14.43-6.46,14.43-14.42c0-7.97-6.46-14.43-14.43-14.43
						s-14.43,6.46-14.43,14.43C32.5,162.886,38.96,169.346,46.93,169.346z"/>
					<path id="bezier10" fill="#F3C5AD" d="M235.07,169.346c7.97,0,14.43-6.46,14.43-14.42c0-7.97-6.46-14.43-14.43-14.43
						c-7.97,0-14.43,6.46-14.43,14.43C220.64,162.886,227.1,169.346,235.07,169.346z"/>
					<path id="bezier11" fill="#F3C5AD" d="M142.07,236.656c52.84,0,95.67-33.49,95.67-74.79s-42.83-74.78-95.67-74.78
						s-95.67,33.48-95.67,74.78S89.23,236.656,142.07,236.656z"/>
					<path id="bezier12" fill="#1A1718" fill-opacity="0.38" d="M97.71,164.846c0,9.33-7.42-11.99-16.57-11.99
						s-16.57,21.32-16.57,11.99c0-9.31,7.42-16.87,16.57-16.87S97.71,155.536,97.71,164.846L97.71,164.846z"/>
					<path id="bezier13" fill="#1A1718" fill-opacity="0.38" d="M224.91,164.846c0,9.33-7.42-11.99-16.57-11.99
						c-9.15,0-16.56,21.32-16.56,11.99c0-9.31,7.41-16.87,16.56-16.87C217.49,147.976,224.91,155.536,224.91,164.846L224.91,164.846
						z"/>
					<path id="bezier14" fill="#1A1718" fill-opacity="0.3" d="M206.74,135.896c11.85,0,21.55,8.15,22.38,18.49
						c0.04-0.47,0.07-0.95,0.07-1.43c0-11.01-10.05-19.93-22.45-19.93c-12.39,0-22.45,8.92-22.45,19.93c0,0.48,0.03,0.96,0.07,1.43
						C185.19,144.056,194.89,135.896,206.74,135.896L206.74,135.896z"/>
					<path id="bezier15" fill="#1A1718" fill-opacity="0.3" d="M80.6,135.896c11.86,0,21.56,8.15,22.39,18.49
						c0.03-0.47,0.06-0.95,0.06-1.43c0-11.01-10.05-19.93-22.45-19.93c-12.39,0-22.44,8.92-22.44,19.93c0,0.48,0.02,0.96,0.06,1.43
						C59.05,144.056,68.75,135.896,80.6,135.896L80.6,135.896z"/>
					<path id="bezier16" fill="#301A02" d="M237.6,106.316c0.09-1.03,0.14-2.07,0.14-3.11c0-13.34-7.55-25.62-20.21-35.38
						c-1.53-1.18,5.18-14.96,3.51-16.06c-1.42-0.93-11.21,10.79-12.73,9.91c-0.73-0.42-1.48-0.84-2.23-1.24
						c-2.78-1.51,0.38-17.92-2.68-19.23c-2.67-1.14-11.53,12.81-14.4,11.83c-13.88-4.7-29.89-7.39-46.95-7.39
						c-51.86,0-94.07,24.81-95.65,55.77h191.2V106.316L237.6,106.316L237.6,106.316z"/>
					<path id="bezier17" fill="#2D1A05" d="M237.74,99.906H46.52H46.4v59.82c0,0,62.46-19.72,83.27-26.3
						c13.04-4.12,52.13-16.46,52.13-16.46l55.94,42.76v-54.93V99.906L237.74,99.906z"/>
					<path id="bezier18" fill="#2C2723" d="M141.53,318.916v13.89h1.07v-13.89H141.53z"/>
					<path id="bezier19" fill="#1A1718" fill-opacity="0.3" d="M142.6,172.546c2.59,0,4.75,1.84,5.24,4.28
						c0.07-0.35,0.11-0.7,0.11-1.07c0-2.95-2.39-5.34-5.35-5.34c-2.95,0-5.34,2.39-5.34,5.34c0,0.37,0.04,0.72,0.11,1.07
						C137.86,174.386,140.02,172.546,142.6,172.546L142.6,172.546z"/>
					<path id="bezier23" fill="#F6AC2C" fill-opacity="0.5" d="M200.86,200.326c0.3,0,0.54-0.24,0.54-0.53
						c0-0.3-0.24-0.54-0.54-0.54c-0.29,0-0.53,0.24-0.53,0.54C200.33,200.086,200.57,200.326,200.86,200.326z"/>
					<path id="bezier27" fill="#F6AC2C" fill-opacity="0.5" d="M82.21,200.326c0.29,0,0.53-0.24,0.53-0.53
						c0-0.3-0.24-0.54-0.53-0.54c-0.3,0-0.54,0.24-0.54,0.54C81.67,200.086,81.91,200.326,82.21,200.326z"/>
					<path id="bezier30" fill="#2C2723" d="M74.72,337.076c2.66,0,4.81-1.67,4.81-3.74c0-2.06-2.15-3.74-4.81-3.74
						c-2.65,0-4.81,1.68-4.81,3.74C69.91,335.406,72.07,337.076,74.72,337.076z"/>
					<path id="bezier31" fill="#2C2723" d="M82.21,337.076c2.65,0,4.81-1.67,4.81-3.74c0-2.06-2.16-3.74-4.81-3.74
						c-2.66,0-4.81,1.68-4.81,3.74C77.4,335.406,79.55,337.076,82.21,337.076z"/>
					<path id="bezier32" fill="#2C2723" d="M89.69,337.076c2.66,0,4.81-1.67,4.81-3.74c0-2.06-2.15-3.74-4.81-3.74
						c-2.66,0-4.81,1.68-4.81,3.74C84.88,335.406,87.03,337.076,89.69,337.076z"/>
					<path id="bezier33" fill="#2C2723" d="M98.24,337.076c2.66,0,4.81-1.67,4.81-3.74c0-2.06-2.15-3.74-4.81-3.74
						c-2.66,0-4.81,1.68-4.81,3.74C93.43,335.406,95.58,337.076,98.24,337.076z"/>
					<path id="bezier34" fill="#2C2723" d="M105.72,337.076c2.66,0,4.81-1.67,4.81-3.74c0-2.06-2.15-3.74-4.81-3.74
						c-2.65,0-4.81,1.68-4.81,3.74C100.91,335.406,103.07,337.076,105.72,337.076z"/>
					<path id="bezier35" fill="#2C2723" d="M113.21,337.076c2.65,0,4.81-1.67,4.81-3.74c0-2.06-2.16-3.74-4.81-3.74
						c-2.66,0-4.81,1.68-4.81,3.74C108.4,335.406,110.55,337.076,113.21,337.076z"/>
					<path id="bezier36" fill="#2C2723" d="M121.76,337.076c2.66,0,4.81-1.67,4.81-3.74c0-2.06-2.15-3.74-4.81-3.74
						c-2.66,0-4.81,1.68-4.81,3.74C116.95,335.406,119.1,337.076,121.76,337.076z"/>
					<path id="bezier37" fill="#2C2723" d="M129.24,337.076c2.66,0,4.81-1.67,4.81-3.74c0-2.06-2.15-3.74-4.81-3.74
						c-2.66,0-4.81,1.68-4.81,3.74C124.43,335.406,126.58,337.076,129.24,337.076z"/>
					<path id="bezier38" fill="#2C2723" d="M136.72,337.076c2.66,0,4.81-1.67,4.81-3.74c0-2.06-2.15-3.74-4.81-3.74
						c-2.65,0-4.81,1.68-4.81,3.74C131.91,335.406,134.07,337.076,136.72,337.076z"/>
					<path id="bezier39" fill="#2C2723" d="M147.41,337.076c2.66,0,4.81-1.67,4.81-3.74c0-2.06-2.15-3.74-4.81-3.74
						c-2.65,0-4.81,1.68-4.81,3.74C142.6,335.406,144.76,337.076,147.41,337.076z"/>
					<path id="bezier40" fill="#2C2723" d="M154.9,337.076c2.65,0,4.81-1.67,4.81-3.74c0-2.06-2.16-3.74-4.81-3.74
						c-2.66,0-4.81,1.68-4.81,3.74C150.09,335.406,152.24,337.076,154.9,337.076z"/>
					<path id="bezier41" fill="#2C2723" d="M162.38,337.076c2.66,0,4.81-1.67,4.81-3.74c0-2.06-2.15-3.74-4.81-3.74
						c-2.66,0-4.81,1.68-4.81,3.74C157.57,335.406,159.72,337.076,162.38,337.076z"/>
					<path id="bezier42" fill="#2C2723" d="M170.93,337.076c2.66,0,4.81-1.67,4.81-3.74c0-2.06-2.15-3.74-4.81-3.74
						c-2.66,0-4.81,1.68-4.81,3.74C166.12,335.406,168.27,337.076,170.93,337.076z"/>
					<path id="bezier43" fill="#2C2723" d="M178.41,337.076c2.66,0,4.81-1.67,4.81-3.74c0-2.06-2.15-3.74-4.81-3.74
						c-2.65,0-4.81,1.68-4.81,3.74C173.6,335.406,175.76,337.076,178.41,337.076z"/>
					<path id="bezier44" fill="#2C2723" d="M185.9,337.076c2.65,0,4.81-1.67,4.81-3.74c0-2.06-2.16-3.74-4.81-3.74
						c-2.66,0-4.81,1.68-4.81,3.74C181.09,335.406,183.24,337.076,185.9,337.076z"/>
					<path id="bezier45" fill="#2C2723" d="M194.45,337.076c2.65,0,4.81-1.67,4.81-3.74c0-2.06-2.16-3.74-4.81-3.74
						c-2.66,0-4.81,1.68-4.81,3.74C189.64,335.406,191.79,337.076,194.45,337.076z"/>
					<path id="bezier46" fill="#2C2723" d="M201.93,337.076c2.66,0,4.81-1.67,4.81-3.74c0-2.06-2.15-3.74-4.81-3.74
						c-2.66,0-4.81,1.68-4.81,3.74C197.12,335.406,199.27,337.076,201.93,337.076z"/>
					<path id="bezier47" fill="#2C2723" d="M209.41,337.076c2.66,0,4.81-1.67,4.81-3.74c0-2.06-2.15-3.74-4.81-3.74
						c-2.65,0-4.81,1.68-4.81,3.74C204.6,335.406,206.76,337.076,209.41,337.076z"/>
					<path id="bezier48" fill="#1A1718" fill-opacity="0.05" d="M142.6,181.096c24.21,0,43.83-2.15,43.83-4.81
						c0-2.65-19.62-4.8-43.83-4.8c-24.2,0-43.82,2.15-43.82,4.8C98.78,178.946,118.4,181.096,142.6,181.096z"/>
					<path id="bezier49" fill="#FFFFFF" d="M106.26,318.916c-20.08,0-36.35,6.69-36.35,14.95h72.69
						C142.6,325.606,126.33,318.916,106.26,318.916L106.26,318.916z"/>
					<path id="bezier50" fill="#FFFFFF" d="M178.95,318.916c-20.07,0-36.35,6.69-36.35,14.95h72.69
						C215.29,325.606,199.02,318.916,178.95,318.916L178.95,318.916z"/>
					<path id="bezier51" fill="#F1B89C" d="M70.38,270.046c-2.06-2.88-4.89-4.38-6.33-3.35c-1.45,1.03-0.94,4.2,1.12,7.07
						c2.06,2.88,4.9,4.38,6.34,3.36C72.95,276.096,72.44,272.926,70.38,270.046z"/>
				</g>
				<path id="bezier52" fill="none" stroke="#A48677" stroke-width="3" d="M173.6,200.348c0,6.76-13.38,12.26-29.93,12.26
					s-29.93-5.51-29.93-12.26c0-6.81,13.38-12.31,29.93-12.31S173.6,193.538,173.6,200.348L173.6,200.348z"/>
				<path id="bezier53" fill="#F3C5AD" d="M110.53,184.828v14.96h65.21v-14.96H110.53z"/>
			</g>
		</g>
	</g>
</g>
</svg>
